<mxfile host="app.diagrams.net" agent="Mozilla/5.0 (Windows NT 10.0; Win64; x64) AppleWebKit/537.36 (KHTML, like Gecko) Chrome/134.0.0.0 Safari/537.36" version="28.0.6">
  <diagram name="Page-1" id="WcDBA_yPgYMRN4FRKrHV">
    <mxGraphModel dx="1426" dy="699" grid="1" gridSize="10" guides="1" tooltips="1" connect="1" arrows="1" fold="1" page="1" pageScale="1" pageWidth="827" pageHeight="1169" math="0" shadow="0">
      <root>
        <mxCell id="0" />
        <mxCell id="1" parent="0" />
        <mxCell id="kSj-1bZBQNxPDSL4Ww2_-1" value="Customer" style="shape=umlLifeline;perimeter=lifelinePerimeter;whiteSpace=wrap;container=1;dropTarget=0;collapsible=0;recursiveResize=0;outlineConnect=0;portConstraint=eastwest;newEdgeStyle={&quot;edgeStyle&quot;:&quot;elbowEdgeStyle&quot;,&quot;elbow&quot;:&quot;vertical&quot;,&quot;curved&quot;:0,&quot;rounded&quot;:0};participant=umlActor;verticalAlign=bottom;labelPosition=center;verticalLabelPosition=top;align=center;size=65;" vertex="1" parent="1">
          <mxGeometry x="20" y="20" width="35" height="898" as="geometry" />
        </mxCell>
        <mxCell id="kSj-1bZBQNxPDSL4Ww2_-2" value="Staff" style="shape=umlLifeline;perimeter=lifelinePerimeter;whiteSpace=wrap;container=1;dropTarget=0;collapsible=0;recursiveResize=0;outlineConnect=0;portConstraint=eastwest;newEdgeStyle={&quot;edgeStyle&quot;:&quot;elbowEdgeStyle&quot;,&quot;elbow&quot;:&quot;vertical&quot;,&quot;curved&quot;:0,&quot;rounded&quot;:0};participant=umlActor;verticalAlign=bottom;labelPosition=center;verticalLabelPosition=top;align=center;size=65;" vertex="1" parent="1">
          <mxGeometry x="220" y="20" width="35" height="898" as="geometry" />
        </mxCell>
        <mxCell id="kSj-1bZBQNxPDSL4Ww2_-3" value="Admin" style="shape=umlLifeline;perimeter=lifelinePerimeter;whiteSpace=wrap;container=1;dropTarget=0;collapsible=0;recursiveResize=0;outlineConnect=0;portConstraint=eastwest;newEdgeStyle={&quot;edgeStyle&quot;:&quot;elbowEdgeStyle&quot;,&quot;elbow&quot;:&quot;vertical&quot;,&quot;curved&quot;:0,&quot;rounded&quot;:0};participant=umlActor;verticalAlign=bottom;labelPosition=center;verticalLabelPosition=top;align=center;size=65;" vertex="1" parent="1">
          <mxGeometry x="420" y="20" width="35" height="898" as="geometry" />
        </mxCell>
        <mxCell id="kSj-1bZBQNxPDSL4Ww2_-4" value="ลงทะเบียน" style="curved=1;endArrow=block;rounded=0;" edge="1" parent="1" source="kSj-1bZBQNxPDSL4Ww2_-1" target="kSj-1bZBQNxPDSL4Ww2_-1">
          <mxGeometry relative="1" as="geometry">
            <Array as="points">
              <mxPoint x="146" y="127" />
              <mxPoint x="146" y="157" />
            </Array>
          </mxGeometry>
        </mxCell>
        <mxCell id="kSj-1bZBQNxPDSL4Ww2_-5" value="เข้าสู่ระบบ" style="curved=1;endArrow=block;rounded=0;" edge="1" parent="1" source="kSj-1bZBQNxPDSL4Ww2_-1" target="kSj-1bZBQNxPDSL4Ww2_-1">
          <mxGeometry relative="1" as="geometry">
            <Array as="points">
              <mxPoint x="146" y="209" />
              <mxPoint x="146" y="239" />
            </Array>
          </mxGeometry>
        </mxCell>
        <mxCell id="kSj-1bZBQNxPDSL4Ww2_-6" value="สั่งเครื่องดื่ม" style="curved=1;endArrow=block;rounded=0;" edge="1" parent="1" source="kSj-1bZBQNxPDSL4Ww2_-1" target="kSj-1bZBQNxPDSL4Ww2_-1">
          <mxGeometry relative="1" as="geometry">
            <Array as="points">
              <mxPoint x="146" y="291" />
              <mxPoint x="146" y="321" />
            </Array>
          </mxGeometry>
        </mxCell>
        <mxCell id="kSj-1bZBQNxPDSL4Ww2_-7" value="ชำระเงิน" style="curved=1;endArrow=block;rounded=0;" edge="1" parent="1" source="kSj-1bZBQNxPDSL4Ww2_-1" target="kSj-1bZBQNxPDSL4Ww2_-1">
          <mxGeometry relative="1" as="geometry">
            <Array as="points">
              <mxPoint x="146" y="373" />
              <mxPoint x="146" y="403" />
            </Array>
          </mxGeometry>
        </mxCell>
        <mxCell id="kSj-1bZBQNxPDSL4Ww2_-8" value="ตรวจสอบสถานะ" style="curved=1;endArrow=block;rounded=0;" edge="1" parent="1" source="kSj-1bZBQNxPDSL4Ww2_-1" target="kSj-1bZBQNxPDSL4Ww2_-1">
          <mxGeometry relative="1" as="geometry">
            <Array as="points">
              <mxPoint x="146" y="455" />
              <mxPoint x="146" y="485" />
            </Array>
          </mxGeometry>
        </mxCell>
        <mxCell id="kSj-1bZBQNxPDSL4Ww2_-9" value="รับออเดอร์" style="curved=1;endArrow=block;rounded=0;" edge="1" parent="1" source="kSj-1bZBQNxPDSL4Ww2_-2" target="kSj-1bZBQNxPDSL4Ww2_-2">
          <mxGeometry relative="1" as="geometry">
            <Array as="points">
              <mxPoint x="346" y="537" />
              <mxPoint x="346" y="567" />
            </Array>
          </mxGeometry>
        </mxCell>
        <mxCell id="kSj-1bZBQNxPDSL4Ww2_-10" value="อัปเดตสถานะเครื่องดื่ม" style="curved=1;endArrow=block;rounded=0;" edge="1" parent="1" source="kSj-1bZBQNxPDSL4Ww2_-2" target="kSj-1bZBQNxPDSL4Ww2_-2">
          <mxGeometry relative="1" as="geometry">
            <Array as="points">
              <mxPoint x="346" y="619" />
              <mxPoint x="346" y="649" />
            </Array>
          </mxGeometry>
        </mxCell>
        <mxCell id="kSj-1bZBQNxPDSL4Ww2_-11" value="จัดการเมนู" style="curved=1;endArrow=block;rounded=0;" edge="1" parent="1" source="kSj-1bZBQNxPDSL4Ww2_-3" target="kSj-1bZBQNxPDSL4Ww2_-3">
          <mxGeometry relative="1" as="geometry">
            <Array as="points">
              <mxPoint x="546" y="701" />
              <mxPoint x="546" y="731" />
            </Array>
          </mxGeometry>
        </mxCell>
        <mxCell id="kSj-1bZBQNxPDSL4Ww2_-12" value="ดูรายงานยอดขาย" style="curved=1;endArrow=block;rounded=0;" edge="1" parent="1" source="kSj-1bZBQNxPDSL4Ww2_-3" target="kSj-1bZBQNxPDSL4Ww2_-3">
          <mxGeometry relative="1" as="geometry">
            <Array as="points">
              <mxPoint x="546" y="783" />
              <mxPoint x="546" y="813" />
            </Array>
          </mxGeometry>
        </mxCell>
      </root>
    </mxGraphModel>
  </diagram>
</mxfile>
